<svg width="25" height="52" viewBox="0 0 25 52" fill="none" xmlns="http://www.w3.org/2000/svg">
<path d="M22.4628 8.39973H13.5099V1.8717C13.5099 0.837992 12.672 0 11.6383 0C10.6045 0 9.76656 0.837992 9.76656 1.8717V8.39962H1.8717C0.837992 8.39962 0 9.23762 0 10.2713V50.1282C0 51.1619 0.837992 51.9999 1.8717 51.9999H6.80154V45.7799C6.80154 44.7462 7.63953 43.9082 8.67323 43.9082H15.8723C16.906 43.9082 17.744 44.7462 17.744 45.7799V52H22.4626C23.4963 52 24.3343 51.162 24.3343 50.1283V10.2714C24.3345 9.23772 23.4965 8.39973 22.4628 8.39973ZM10.5451 36.9084C10.5451 37.9421 9.70714 38.7801 8.67344 38.7801C7.63974 38.7801 6.80174 37.9421 6.80174 36.9084V34.5375C6.80174 33.5038 7.63974 32.6659 8.67344 32.6659C9.70714 32.6659 10.5451 33.5038 10.5451 34.5375V36.9084ZM10.5451 27.6746C10.5451 28.7083 9.70714 29.5463 8.67344 29.5463C7.63974 29.5463 6.80174 28.7083 6.80174 27.6746V25.3037C6.80174 24.27 7.63974 23.432 8.67344 23.432C9.70714 23.432 10.5451 24.27 10.5451 25.3037V27.6746ZM10.5451 18.4407C10.5451 19.4744 9.70714 20.3124 8.67344 20.3124C7.63974 20.3124 6.80174 19.4744 6.80174 18.4407V16.0698C6.80174 15.0361 7.63974 14.1981 8.67344 14.1981C9.70714 14.1981 10.5451 15.0361 10.5451 16.0698V18.4407ZM17.5329 36.9084C17.5329 37.9421 16.6949 38.7801 15.6612 38.7801C14.6275 38.7801 13.7895 37.9421 13.7895 36.9084V34.5375C13.7895 33.5038 14.6275 32.6659 15.6612 32.6659C16.6949 32.6659 17.5329 33.5038 17.5329 34.5375V36.9084ZM17.5329 27.6746C17.5329 28.7083 16.6949 29.5463 15.6612 29.5463C14.6275 29.5463 13.7895 28.7083 13.7895 27.6746V25.3037C13.7895 24.27 14.6275 23.432 15.6612 23.432C16.6949 23.432 17.5329 24.27 17.5329 25.3037V27.6746ZM17.5329 18.4407C17.5329 19.4744 16.6949 20.3124 15.6612 20.3124C14.6275 20.3124 13.7895 19.4744 13.7895 18.4407V16.0698C13.7895 15.0361 14.6275 14.1981 15.6612 14.1981C16.6949 14.1981 17.5329 15.0361 17.5329 16.0698V18.4407Z" fill="#E16E4F"/>
</svg>
